<svg xmlns="http://www.w3.org/2000/svg" viewBox="0 0 200 29.68"><defs><style>.cls-1{fill:#082150;}.cls-2{fill:#0b9547;}.cls-3{fill:#231f20;}</style></defs><title>MIB Logo Full</title><g id="Layer_2" data-name="Layer 2"><g id="Isolation_Mode" data-name="Isolation Mode"><path class="cls-1" d="M22.87,3.38A37.11,37.11,0,0,1,26.64,0a36.89,36.89,0,0,1,3.77,3.38A35.31,35.31,0,0,1,40.5,28.12c0,.52,0,1,0,1.56H28.63l7.62-4.75a28.11,28.11,0,0,0-3.89-12,27.92,27.92,0,0,0-5.72-6.79A28,28,0,0,0,17,24.93l3.22,4.75H12.82c0-.52,0-1,0-1.56A35.31,35.31,0,0,1,22.87,3.38Z"/><path class="cls-2" d="M17.63,3.38A36.62,36.62,0,0,0,13.86,0a36.89,36.89,0,0,0-3.77,3.38A35.32,35.32,0,0,0,0,28.12c0,.52,0,1,0,1.56H11.87L4.25,24.93A28,28,0,0,1,13.86,6.14a27.92,27.92,0,0,1,5.72,6.79,28.12,28.12,0,0,1,3.89,12l-3.22,4.75h7.43c0-.52,0-1,0-1.56A35.32,35.32,0,0,0,17.63,3.38Z"/><path class="cls-3" d="M56.54,29H58l-.72-11.53h-1.9L53.32,23c-.51,1.45-.92,2.72-1.21,3.88h-.05c-.29-1.2-.68-2.46-1.16-3.88l-2-5.58H47L46.22,29h1.42L48,24c.1-1.73.19-3.66.22-5.1h0c.33,1.37.79,2.86,1.33,4.48l1.87,5.49h1.13l2-5.6c.58-1.59,1.06-3,1.45-4.38h.05c0,1.44.09,3.37.17,5L56.54,29Zm9.75,0a11.66,11.66,0,0,1-.14-2V23.9c0-1.66-.62-3.39-3.15-3.39a5.14,5.14,0,0,0-2.72.74l.34,1a4.12,4.12,0,0,1,2.16-.62,1.71,1.71,0,0,1,1.88,1.92v.17c-3.2,0-5,1.08-5,3.08a2.36,2.36,0,0,0,2.53,2.38,3.08,3.08,0,0,0,2.53-1.23h.05l.12,1ZM64.7,26.19a1.58,1.58,0,0,1-.09.48,2.06,2.06,0,0,1-2,1.39,1.33,1.33,0,0,1-1.42-1.44c0-1.61,1.86-1.9,3.51-1.87v1.44ZM68.59,29h1.51V16.83H68.59V29Zm9.69-12.15v4.94h0a2.77,2.77,0,0,0-2.5-1.27c-2,0-3.73,1.69-3.71,4.45,0,2.52,1.54,4.21,3.54,4.21a3.06,3.06,0,0,0,2.82-1.63h0L78.49,29h1.35c-.05-.56-.07-1.4-.07-2.14v-10Zm0,8.68a2.59,2.59,0,0,1-.07.65A2.26,2.26,0,0,1,76,28c-1.63,0-2.45-1.39-2.45-3.06,0-1.83.92-3.2,2.48-3.2a2.21,2.21,0,0,1,2.17,1.75,2.64,2.64,0,0,1,.07.63v1.44ZM83.78,29V20.7H82.28V29ZM83,17.43a.92.92,0,0,0-.94.94.93.93,0,1,0,.94-.94Zm2.22,3.27L88.4,29h1.44l3.25-8.28H91.52l-1.61,4.65c-.27.75-.51,1.44-.7,2.12h-.05a21.25,21.25,0,0,0-.67-2.12L86.86,20.7ZM101,25.11a5.66,5.66,0,0,0,.05-.7c0-1.52-.72-3.9-3.42-3.9-2.41,0-3.88,2-3.88,4.47a3.85,3.85,0,0,0,4.07,4.17,6.71,6.71,0,0,0,2.75-.51l-.26-1.08A5.44,5.44,0,0,1,98,28a2.65,2.65,0,0,1-2.84-2.87ZM95.19,24a2.5,2.5,0,0,1,2.31-2.45A2.14,2.14,0,0,1,99.59,24Zm7.14,4.55a4.72,4.72,0,0,0,2.33.56c2,0,3.1-1,3.1-2.48,0-1.23-.74-2-2.17-2.5-1.08-.41-1.57-.72-1.57-1.4s.5-1.13,1.39-1.13a3.23,3.23,0,0,1,1.69.48l.38-1.1a4.14,4.14,0,0,0-2-.51c-1.78,0-2.86,1.1-2.86,2.43,0,1,.7,1.81,2.19,2.34,1.11.41,1.54.8,1.54,1.52S105.79,28,104.69,28a4,4,0,0,1-2-.6l-.38,1.15Zm11-11.14V29h1.49V17.45Zm3.46,11.14a4.72,4.72,0,0,0,2.33.56c2,0,3.1-1,3.1-2.48,0-1.23-.74-2-2.17-2.5-1.08-.41-1.57-.72-1.57-1.4s.5-1.13,1.39-1.13a3.22,3.22,0,0,1,1.69.48L122,21a4.14,4.14,0,0,0-2-.51c-1.78,0-2.86,1.1-2.86,2.43,0,1,.7,1.81,2.19,2.34,1.11.41,1.54.8,1.54,1.52S120.28,28,119.18,28a4,4,0,0,1-2-.6l-.38,1.15Zm7.36.39h1.51V16.83h-1.51V29Zm10,0a11.66,11.66,0,0,1-.14-2V23.9c0-1.66-.62-3.39-3.15-3.39a5.14,5.14,0,0,0-2.72.74l.34,1a4.13,4.13,0,0,1,2.16-.62,1.71,1.71,0,0,1,1.88,1.92v.17c-3.2,0-5,1.08-5,3.08a2.36,2.36,0,0,0,2.53,2.38,3.08,3.08,0,0,0,2.53-1.23h.05l.12,1Zm-1.59-2.79a1.57,1.57,0,0,1-.09.48,2.06,2.06,0,0,1-2,1.39,1.33,1.33,0,0,1-1.42-1.44c0-1.61,1.87-1.9,3.51-1.87v1.44ZM136.47,29h1.47V24a2.08,2.08,0,0,1,.12-.74,2.06,2.06,0,0,1,1.87-1.51c1.15,0,1.73,1,1.73,2.28v5h1.47V23.86a2.48,2.48,0,0,1,.12-.75A2,2,0,0,1,145,21.74c1.22,0,1.8,1,1.8,2.55V29h1.47V24.1c0-2.87-1.63-3.59-2.72-3.59a2.83,2.83,0,0,0-1.83.58,3.42,3.42,0,0,0-.92,1.08h0a2.45,2.45,0,0,0-2.34-1.66,2.85,2.85,0,0,0-2.6,1.52h-.05l-.07-1.33H136.4c.05.68.07,1.39.07,2.24v6Zm15.78,0V20.7h-1.51V29Zm-.75-11.55a.92.92,0,0,0-.94.94.93.93,0,1,0,.94-.94Zm8.9,10.11a4.28,4.28,0,0,1-1.85.41,2.84,2.84,0,0,1-2.87-3.1,2.87,2.87,0,0,1,2.93-3.13,3.49,3.49,0,0,1,1.75.39l.34-1.16a5,5,0,0,0-2.09-.43,4.21,4.21,0,0,0-4.45,4.4,3.93,3.93,0,0,0,4.12,4.23,5.55,5.55,0,0,0,2.38-.48l-.26-1.13Zm5.7,1.4a17.35,17.35,0,0,0,2.31.14c1.88,0,3.18-.34,4-1.08a3.11,3.11,0,0,0,1-2.31A3,3,0,0,0,171,22.8v0a2.74,2.74,0,0,0,2-2.53,2.42,2.42,0,0,0-1-2,4.77,4.77,0,0,0-3.17-.84,14.42,14.42,0,0,0-2.72.24V28.94Zm1.49-10.33a6.39,6.39,0,0,1,1.32-.1c1.51,0,2.53.53,2.53,1.88,0,1.11-.92,1.93-2.5,1.93h-1.35V18.61Zm0,4.84h1.23c1.63,0,3,.65,3,2.22s-1.42,2.24-3,2.24a8,8,0,0,1-1.25-.07v-4.4ZM181.26,29a11.66,11.66,0,0,1-.14-2V23.9c0-1.66-.62-3.39-3.15-3.39a5.14,5.14,0,0,0-2.72.74l.34,1a4.12,4.12,0,0,1,2.16-.62,1.71,1.71,0,0,1,1.88,1.92v.17c-3.2,0-5,1.08-5,3.08a2.36,2.36,0,0,0,2.53,2.38,3.08,3.08,0,0,0,2.53-1.23h.05l.12,1Zm-1.59-2.79a1.58,1.58,0,0,1-.09.48,2.06,2.06,0,0,1-2,1.39,1.33,1.33,0,0,1-1.42-1.44c0-1.61,1.87-1.9,3.51-1.87v1.44ZM183.56,29h1.51V24a2.17,2.17,0,0,1,.1-.7,2.14,2.14,0,0,1,2-1.54c1.42,0,1.92,1.11,1.92,2.45V29h1.51V24c0-2.84-1.78-3.53-2.93-3.53a3,3,0,0,0-2.74,1.56h0l-.09-1.37h-1.33c.05.68.07,1.39.07,2.24v6Zm11-12.15h-1.49V29h1.49V25.86l.77-.86,2.86,4H200l-3.64-4.88,3.2-3.41h-1.81l-2.43,2.86c-.24.29-.53.65-.74.94h0V16.83Z"/></g></g></svg>